<?xml version="1.0" encoding="utf-8"?>
<!-- Generator: Adobe Illustrator 19.2.0, SVG Export Plug-In . SVG Version: 6.00 Build 0)  -->
<svg version="1.1" id="Calque_1" xmlns="http://www.w3.org/2000/svg" xmlns:xlink="http://www.w3.org/1999/xlink" x="0px" y="0px"
	 viewBox="0 0 50 50" style="enable-background:new 0 0 50 50;" xml:space="preserve">
<style type="text/css">
	.st0{fill:#FFFFFF;}
</style>
<path class="st0" d="M43.4,30.3l6-4.6L38.9,11.9l-6,4.6l0.2,0.3H21.3c-0.8,0-2.7,0.2-3.7,1.6l-1.9-0.9l0.8-1l-6-4.6L0,25.7l6,4.6
	l1.1-1.5l1.4,1L8.3,30c-0.5,0.6-0.7,1.4-0.5,2.2c0.1,0.8,0.5,1.4,1.1,1.9c0.5,0.4,1.1,0.6,1.7,0.6c0.2,0,0.4,0,0.6-0.1
	c-0.2,1.1,0.2,2.3,1.1,3c0.5,0.4,1.1,0.6,1.7,0.6c0.3,0,0.6-0.1,0.8-0.1c0,0.2,0,0.5,0,0.7c0.1,0.8,0.5,1.5,1.1,1.9
	c0.5,0.4,1.1,0.6,1.7,0.6c0.7,0,1.4-0.3,1.9-0.7c0.1,0.7,0.5,1.3,1.1,1.8c0.5,0.4,1.1,0.6,1.7,0.6s1.2-0.2,1.6-0.5l0.5,0.4
	c0.5,0.4,1.1,0.6,1.7,0.6c0.2,0,0.3,0,0.5,0c0.8-0.1,1.4-0.5,1.9-1.2c0.4-0.6,0.6-1.2,0.5-1.8l0.1,0.1c0.5,0.4,1.1,0.6,1.7,0.6
	c0.9,0,1.8-0.4,2.4-1.2c0.4-0.6,0.6-1.4,0.5-2.1c0.3,0.1,0.7,0.2,1.1,0.2c0.9,0,1.8-0.4,2.4-1.2c0.5-0.7,0.6-1.4,0.5-2.2
	c0.3,0.1,0.5,0.1,0.8,0.1c0.9,0,1.8-0.4,2.4-1.2c0.5-0.6,0.6-1.4,0.5-2.2c-0.1-0.6-0.4-1.1-0.8-1.6l1.5-1.1L43.4,30.3z M38.7,13.4
	L48,25.5l-4.3,3.3l-9.3-12.2L38.7,13.4z M5.8,28.8l-4.3-3.3l9.3-12.2l4.3,3.3L5.8,28.8z M9.5,33.3c-0.4-0.3-0.6-0.7-0.7-1.2
	c-0.1-0.5,0-1,0.4-1.4l0.9-1.3c0.4-0.5,0.9-0.8,1.6-0.8c0.4,0,0.8,0.1,1.1,0.4c0.4,0.3,0.6,0.7,0.7,1.2c0.1,0.5-0.1,1-0.4,1.4
	L13,31.7L12,33C11.5,33.7,10.3,33.9,9.5,33.3z M12.9,36.8c-0.8-0.6-1-1.8-0.4-2.7l0.4-0.5l0.1-0.1l0.9-1.2l1.3-1.8
	c0.4-0.5,0.9-0.8,1.6-0.8c0.4,0,0.8,0.1,1.1,0.4c0.8,0.6,1,1.8,0.4,2.6l-0.7,0.9l-2,2.7C14.9,37.2,13.7,37.4,12.9,36.8z M16.6,39.9
	c-0.4-0.3-0.7-0.7-0.7-1.2c-0.1-0.5,0.1-1,0.4-1.4l2.4-3.2l0.5-0.7l0,0l1.3-1.7c0.4-0.5,0.9-0.8,1.6-0.8c0.4,0,0.8,0.1,1.1,0.4
	c0.4,0.3,0.7,0.7,0.7,1.2c0.1,0.5-0.1,1-0.4,1.4l-1.5,2L21.9,36l-1.7,2.4c0,0,0,0,0,0.1l-0.8,1.1C18.6,40.3,17.4,40.5,16.6,39.9z
	 M21.3,41.5c-0.8-0.6-1-1.8-0.4-2.6l1.8-2.5c0.4-0.4,0.9-0.7,1.5-0.7c0.4,0,0.8,0.1,1.1,0.4c0.8,0.6,1,1.8,0.4,2.7L24,41.2
	C23.3,41.9,22.1,42.1,21.3,41.5z M27.8,41.5c-0.3,0.4-0.7,0.7-1.2,0.7c-0.5,0.1-1,0-1.4-0.3l-0.3-0.2l1.7-2.4
	c0.2-0.2,0.3-0.4,0.4-0.7l0.8,0.6C28.2,39.9,28.3,40.8,27.8,41.5z M40,32.7c-0.6,0.8-1.8,1-2.6,0.4L34,30.7l-1.2-0.9l0,0l-1.5-1
	l-0.6,0.8l2.8,2l2.4,1.7c0.9,0.6,1.1,1.8,0.5,2.6s-1.8,1-2.7,0.4l-2.8-2l0,0l-2.4-1.7l-0.5,1l4,2.9c0.9,0.6,1.1,1.8,0.5,2.6
	c-0.6,0.8-1.8,1-2.7,0.4l-1.4-1c-0.1-0.2-0.3-0.3-0.5-0.4l-0.8-0.6c0-0.9-0.4-1.7-1.2-2.2c-0.6-0.4-1.3-0.6-1.9-0.5l0.2-0.3
	c0.5-0.6,0.7-1.4,0.6-2.2s-0.5-1.5-1.1-1.9c-1.2-0.9-3.1-0.6-4,0.6c-0.1-0.7-0.5-1.3-1.1-1.7c-1.2-0.9-3.1-0.6-4,0.6
	c-0.2-0.7-0.5-1.3-1.1-1.7c-1.2-0.9-3.2-0.6-4.1,0.7L9.1,29l-1.3-1l7.3-9.6l1.9,0.9l-1.1,1.5c-0.5,0.6-0.7,1.4-0.5,2.2
	c0.1,0.8,0.5,1.4,1.1,1.9s1.4,0.6,2.1,0.5c0.8-0.1,1.5-0.5,2-1.2l1.6-2.2h2.6c0.4,2.1,2.3,3.9,4.3,3.9h4.5l5.9,4.2
	c0.4,0.3,0.7,0.7,0.8,1.2S40.3,32.3,40,32.7z M39.7,28.9L34,24.8h-4.8c-1.6,0-3.3-1.7-3.3-3.4v-0.5h-4.1l-1.9,2.6
	c-0.3,0.4-0.8,0.7-1.3,0.8c-0.5,0.1-1,0-1.4-0.3s-0.6-0.7-0.7-1.2s0-1,0.4-1.4l1.6-2.3c0.8-1.2,2.5-1.3,2.9-1.3H34l7.5,9.8
	L39.7,28.9z"/>
</svg>
