<?xml version="1.0" encoding="utf-8"?>
<!-- Generator: Adobe Illustrator 19.2.0, SVG Export Plug-In . SVG Version: 6.00 Build 0)  -->
<svg version="1.1" id="Calque_1" xmlns="http://www.w3.org/2000/svg" xmlns:xlink="http://www.w3.org/1999/xlink" x="0px" y="0px"
	 viewBox="0 0 50 50" style="enable-background:new 0 0 50 50;" xml:space="preserve">
<style type="text/css">
	.st0{fill:#FFFFFF;}
</style>
<g>
	<g>
		<path class="st0" d="M25.3,25.3h2.3h0.3c0-0.4-0.1-0.8-0.3-1.1c-4.2-8.8-8.8-12.9-13.8-12.7C5.9,11.7,1.2,23,0.7,24.3
			s0.1,2.9,1.5,3.4c0.3,0.1,0.6,0.2,1,0.2c1,0,2-0.6,2.4-1.7c1.2-3.1,4.9-9.5,8.5-9.6c2.7-0.1,5.9,3.4,9,9.8
			c0.4,0.9,1.4,1.5,2.3,1.5v-0.3v-2.3H25.3z"/>
		<rect x="28.2" y="28.4" class="st0" width="4.5" height="4.5"/>
		<polygon class="st0" points="34,34.1 34,36.4 34,38.6 38.5,38.6 38.5,37.8 38.5,34.1 		"/>
		<rect x="40.8" y="29.8" class="st0" width="4.5" height="4.5"/>
		<polygon class="st0" points="49.5,23.1 49.4,23.1 46,23.1 45,23.1 45,24.9 45,27.6 49.1,27.6 49.5,27.6 49.5,26.8 49.5,23.2 		"/>
	</g>
</g>
</svg>
