<?xml version="1.0" encoding="utf-8"?>
<!-- Generator: Adobe Illustrator 19.2.0, SVG Export Plug-In . SVG Version: 6.00 Build 0)  -->
<svg version="1.1" id="Calque_1" xmlns="http://www.w3.org/2000/svg" xmlns:xlink="http://www.w3.org/1999/xlink" x="0px" y="0px"
	 viewBox="0 0 50 50" style="enable-background:new 0 0 50 50;" xml:space="preserve">
<style type="text/css">
	.st0{fill:#FFFFFF;}
</style>
<path class="st0" d="M17.7,16.8l-2.5-0.1c-2-0.1-3.9,0.6-5.4,2.1l-3.7,3.7c-0.5,0.5-0.5,1.4,0,1.9c0.1,0.1,0.3,0.2,0.4,0.3l5.6,2.3
	c-0.5,1.3-0.8,2.6-1.1,3.9c-0.1,0.3,0,0.7,0.3,0.9l7,7c0.2,0.2,0.6,0.3,0.9,0.3c1.3-0.3,2.6-0.7,3.9-1.1l2.3,5.6
	c0.3,0.7,1.1,1,1.8,0.7c0.2-0.1,0.3-0.2,0.4-0.3l3.7-3.7c1.4-1.4,2.2-3.4,2.1-5.4l-0.1-2.5c8.1-6.4,13-15.9,14.5-28.2
	c0.1-0.9-0.5-1.7-1.4-1.8c-0.1,0-0.3,0-0.4,0C33.6,3.8,24.1,8.7,17.7,16.8z M45.7,4.2C44.2,16,39.4,25.1,31.6,31.1
	c-0.3,0.2-0.4,0.5-0.4,0.8l0.2,3c0.1,1.5-0.5,2.9-1.5,3.9l-3.1,3.1l-2.3-5.6c-0.2-0.5-0.7-0.7-1.2-0.5c-1.3,0.5-2.6,0.9-4,1.2
	L13,30.8c0.3-1.4,0.7-2.7,1.2-4c0.2-0.5,0-1-0.5-1.2l-5.6-2.3l3.1-3.1c1-1,2.5-1.6,3.9-1.5l3,0.2c0.3,0,0.6-0.1,0.8-0.4
	C24.9,10.5,33.9,5.7,45.7,4.2z M33.6,21.1c2.6,0,4.8-2.1,4.8-4.7s-2.1-4.8-4.7-4.8s-4.8,2.1-4.8,4.7c0,1.3,0.5,2.5,1.4,3.4
	C31.2,20.6,32.4,21.1,33.6,21.1z M31.6,14.3c1.1-1.1,2.9-1.1,4,0s1.1,2.9,0,4c-1.1,1.1-2.9,1.1-4,0c-0.5-0.5-0.8-1.3-0.8-2
	C30.8,15.6,31.1,14.9,31.6,14.3z M3.5,47.8L3.5,47.8c7.7-0.1,11.4-4.2,12.7-5.9c0.4-0.5,0.3-1.3-0.3-1.7c-0.3-0.2-0.6-0.3-1-0.2
	c-1,0.3-2,0.3-3.1,0.2s-2-1-2.1-2.1c-0.1-1,0-2.1,0.2-3.1c0.2-0.6-0.2-1.3-0.9-1.4c-0.3-0.1-0.7,0-1,0.2c-1.7,1.3-5.8,5-5.9,12.6
	C2.1,47.2,2.7,47.8,3.5,47.8L3.5,47.8z M7.8,36.7c0,0.6,0,1.2,0.1,1.7c0.2,2,1.8,3.5,3.8,3.8c0.6,0.1,1.2,0.1,1.7,0.1
	c-1.6,1.6-4.5,3.4-9.2,3.7C4.3,41.2,6.2,38.3,7.8,36.7L7.8,36.7z"/>
</svg>
