<?xml version="1.0" encoding="utf-8"?>
<!-- Generator: Adobe Illustrator 19.2.0, SVG Export Plug-In . SVG Version: 6.00 Build 0)  -->
<svg version="1.1" id="Calque_1" xmlns="http://www.w3.org/2000/svg" xmlns:xlink="http://www.w3.org/1999/xlink" x="0px" y="0px"
	 viewBox="0 0 50 50" style="enable-background:new 0 0 50 50;" xml:space="preserve">
<style type="text/css">
	.st0{fill:#FFFFFF;}
</style>
<g>
	<path class="st0" d="M37.1,14.9c5.5,0,9.9,4.4,9.9,9.9s-4.4,9.9-9.9,9.9c-3.1,0-6.1-1.5-8-4c-0.3-0.4-0.8-0.6-1.3-0.6h-5.7
		c-0.5,0-1,0.2-1.3,0.6c-1.9,2.5-4.8,4-8,4c-5.5,0-9.9-4.4-9.9-9.9s4.4-9.9,9.9-9.9L37.1,14.9 M37.1,13.3H12.9
		c-6.3,0-11.5,5.1-11.5,11.5s5.1,11.5,11.5,11.5c3.8,0,7.2-1.8,9.2-4.7h5.7c2.1,2.8,5.4,4.7,9.2,4.7c6.3,0,11.5-5.1,11.5-11.5
		S43.4,13.3,37.1,13.3L37.1,13.3z"/>
	<polygon class="st0" points="19.4,22.9 14.8,22.9 14.8,18.3 11.1,18.3 11.1,22.9 6.5,22.9 6.5,26.6 11.1,26.6 11.1,31.2 14.8,31.2 
		14.8,26.6 19.4,26.6 	"/>
	<g>
		<circle class="st0" cx="40.1" cy="27.7" r="2.6"/>
		<circle class="st0" cx="34.1" cy="21.8" r="2.6"/>
	</g>
</g>
</svg>
