<?xml version="1.0" encoding="utf-8"?>
<!-- Generator: Adobe Illustrator 19.2.0, SVG Export Plug-In . SVG Version: 6.00 Build 0)  -->
<svg version="1.1" id="Calque_1" xmlns="http://www.w3.org/2000/svg" xmlns:xlink="http://www.w3.org/1999/xlink" x="0px" y="0px"
	 viewBox="0 0 50 50" style="enable-background:new 0 0 50 50;" xml:space="preserve">
<style type="text/css">
	.st0{fill:#FFFFFF;}
	.st1{fill:#FFFFFF;stroke:#FFFFFF;stroke-width:4;}
</style>
<g>
	<path class="st0" d="M15.7,31.9c0-0.1,0.2-0.2,0.4-0.3c0.3-0.2,0.6-0.3,1-0.4H17c0.4,0,0.7,0.1,1,0.4c0.2,0.1,0.3,0.3,0.4,0.3
		l0.7,0.9l1.8-1.4l-0.7-0.9c-0.2-0.2-0.5-0.5-0.8-0.8C18.7,29.3,18,29,17.1,29H17c-0.8,0-1.6,0.3-2.2,0.8c-0.4,0.3-0.7,0.6-0.9,0.8
		l-0.7,0.9l1.8,1.4L15.7,31.9z M31.3,31.9c0-0.1,0.2-0.2,0.4-0.3c0.3-0.2,0.6-0.3,1-0.4h-0.1c0.4,0,0.7,0.1,1,0.4
		c0.2,0.1,0.3,0.3,0.4,0.3l0.7,0.9l1.8-1.4l-0.7-0.9c-0.2-0.2-0.5-0.5-0.8-0.8c-0.6-0.5-1.4-0.7-2.2-0.8h-0.1
		c-0.8,0-1.6,0.3-2.2,0.8c-0.4,0.3-0.7,0.6-0.9,0.8l-0.7,0.9l1.8,1.4L31.3,31.9z"/>
	<path class="st0" d="M42.3,14.8c4.9,4.8,4.9,10.9,4.9,10.9v11.1c0,0,0,11.1-22.2,11.1S2.7,36.8,2.7,36.8V25.7c0,0,0-6.1,4.9-10.9
		L1.8,4.6C1.5,4,1.7,3.3,2.2,3s1.2-0.1,1.5,0.4l5.7,9.8C12.7,10.8,17.6,9,25,9s12.3,1.8,15.6,4.3l5.7-9.8c0.3-0.5,1-0.7,1.5-0.4
		s0.7,1,0.4,1.5L42.3,14.8z M5,25.7v11.1c0,0,0,0,0,0.2c0,0.3,0.1,0.5,0.2,0.9c0.3,1,0.9,2,1.9,3c3,3,8.7,4.9,17.9,4.9
		s14.9-1.9,17.9-4.9c1-1,1.6-2,1.9-3c0.1-0.3,0.2-0.6,0.2-0.9c0-0.1,0-0.2,0-0.2V25.7c0-0.1,0-0.2,0-0.5c0-0.5-0.1-1-0.3-1.6
		c-0.4-1.7-1.1-3.4-2.1-5c-3-4.6-8.6-7.3-17.6-7.3S10.4,14,7.4,18.6c-1.1,1.6-1.7,3.3-2.1,5C5.1,24.2,5,24.7,5,25.2
		C5,25.5,5,25.7,5,25.7z"/>
	<path class="st1" d="M16.6,22.9h16.7c4.6,0,8.3,3.7,8.3,8.3l0,0c0,4.6-3.7,8.3-8.3,8.3H16.6c-4.6,0-8.3-3.7-8.3-8.3l0,0
		C8.3,26.6,12,22.9,16.6,22.9z"/>
</g>
</svg>
