<?xml version="1.0" encoding="utf-8"?>
<!-- Generator: Adobe Illustrator 19.2.0, SVG Export Plug-In . SVG Version: 6.00 Build 0)  -->
<svg version="1.1" id="Calque_1" xmlns="http://www.w3.org/2000/svg" xmlns:xlink="http://www.w3.org/1999/xlink" x="0px" y="0px"
	 viewBox="0 0 50 50" style="enable-background:new 0 0 50 50;" xml:space="preserve">
<style type="text/css">
	.st0{fill:#FFFFFF;}
</style>
<g>
	<g>
		<path class="st0" d="M14.7,31.7L1.6,25c-0.7-0.3-1-0.8-1-1.4v-0.1c0-0.6,0.3-1.1,1-1.4l13.1-6.7c0.2-0.1,0.4-0.2,0.7-0.2
			c0.6,0,1.1,0.5,1.1,1.1c0,0.5-0.3,0.9-0.8,1.1L3.5,23.5l12.2,6.1c0.5,0.2,0.8,0.6,0.8,1.1c0,0.6-0.5,1.1-1.1,1.1
			C15.2,31.9,14.9,31.8,14.7,31.7z"/>
		<path class="st0" d="M16.5,38L31,9.2c0.2-0.4,0.5-0.7,1-0.7c0.6,0,1,0.5,1,1c0,0.2-0.1,0.4-0.1,0.6L18.4,39
			c-0.2,0.4-0.5,0.7-1,0.7c-0.6,0-1.1-0.5-1.1-1C16.3,38.4,16.4,38.2,16.5,38z"/>
		<path class="st0" d="M35.1,15.3L48.2,22c0.7,0.3,1,0.8,1,1.4v0.1c0,0.6-0.3,1.1-1,1.4l-13.1,6.7c-0.2,0.1-0.5,0.2-0.7,0.2
			c-0.6,0-1.1-0.5-1.1-1.1c0-0.5,0.3-0.9,0.8-1.1l12.2-6.1l-12.2-6.1c-0.4-0.2-0.8-0.6-0.8-1.1c0-0.6,0.5-1.1,1.1-1.1
			C34.7,15.2,34.9,15.3,35.1,15.3z"/>
	</g>
</g>
</svg>
