<?xml version="1.0" encoding="utf-8"?>
<!-- Generator: Adobe Illustrator 19.2.0, SVG Export Plug-In . SVG Version: 6.00 Build 0)  -->
<svg version="1.1" id="Calque_1" xmlns="http://www.w3.org/2000/svg" xmlns:xlink="http://www.w3.org/1999/xlink" x="0px" y="0px"
	 viewBox="0 0 50 50" style="enable-background:new 0 0 50 50;" xml:space="preserve">
<style type="text/css">
	.st0{fill:#00DD00;}
</style>
<g transform="translate(0,-952.36218)">
	<path class="st0" d="M30.1,953.5c-2.9,0-5.3,2.3-5.3,5.3c0,2,1.2,3.8,2.8,4.7l-2.1,8.3c-0.7-0.2-1.5-0.4-2.3-0.4
		c-1.8,0-3.5,0.6-4.9,1.7l-8.1-6.9c0.5-0.8,0.9-1.7,0.9-2.7c0-2.6-2.1-4.8-4.8-4.8s-4.8,2.1-4.8,4.8c0,2.6,2.1,4.8,4.8,4.8
		c0.8,0,1.6-0.2,2.2-0.6l8.3,7c-1,1.3-1.5,2.9-1.5,4.8s0.6,3.4,1.6,4.8l-5.4,5.4c-1-0.7-2.3-1.2-3.6-1.2c-3.4,0-6.3,2.8-6.3,6.3
		s2.8,6.3,6.3,6.3s6.3-2.8,6.3-6.3c0-1.3-0.4-2.6-1.2-3.6l5.4-5.4c1.3,1,3,1.6,4.8,1.6c2.6,0,5-1.3,6.4-3.3l7.9,3.7
		c-0.1,0.4-0.1,0.7-0.1,1.1c0,3.2,2.6,5.8,5.8,5.8s5.8-2.6,5.8-5.8s-2.6-5.8-5.8-5.8c-2,0-3.8,1.1-4.9,2.7l-7.7-3.6
		c0.3-0.8,0.5-1.8,0.5-2.7c0-0.8-0.1-1.5-0.3-2.2l7.8-5.3c0.9,1,2.1,1.6,3.5,1.6c2.6,0,4.8-2.1,4.8-4.8c0-2.6-2.1-4.8-4.8-4.8
		s-4.8,2.1-4.8,4.8c0,0.4,0.1,0.8,0.2,1.2l-7.7,5.2c-0.6-1-1.4-1.8-2.4-2.4l2.1-8.7c0.1,0,0.2,0,0.4,0c2.9,0,5.3-2.3,5.3-5.3
		C35.4,955.2,32.5,953.5,30.1,953.5z M30.1,955.6c1.7,0,3.1,1.4,3.1,3.1c0,1.7-1.4,3.1-3.1,3.1s-3.1-1.4-3.1-3.1
		S28.4,955.6,30.1,955.6z M6.5,960.9c1.5,0,2.6,1.2,2.6,2.6c0,1.4-1.2,2.6-2.6,2.6c-1.5,0-2.6-1.2-2.6-2.6
		C3.8,962.1,4.9,960.9,6.5,960.9z M42.2,966.1c1.5,0,2.6,1.2,2.6,2.6s-1.2,2.6-2.6,2.6c-1.5,0-2.6-1.2-2.6-2.6
		S40.7,966.1,42.2,966.1z M23.2,973.5c3.2,0,5.8,2.6,5.8,5.8s-2.6,5.8-5.8,5.8s-5.8-2.6-5.8-5.8S20.1,973.5,23.2,973.5z M43.3,985.1
		c2,0,3.6,1.6,3.6,3.6s-1.6,3.6-3.6,3.6s-3.6-1.6-3.6-3.6C39.6,986.7,41.2,985.1,43.3,985.1L43.3,985.1z M8,990.4
		c2.3,0,4.2,1.9,4.2,4.2s-1.9,4.2-4.2,4.2s-4.2-1.9-4.2-4.2S5.6,990.4,8,990.4z"/>
</g>
</svg>
