<?xml version="1.0" encoding="utf-8"?>
<!-- Generator: Adobe Illustrator 19.2.0, SVG Export Plug-In . SVG Version: 6.00 Build 0)  -->
<svg version="1.1" id="Calque_1" xmlns="http://www.w3.org/2000/svg" xmlns:xlink="http://www.w3.org/1999/xlink" x="0px" y="0px"
	 viewBox="0 0 100 125" style="enable-background:new 0 0 100 125;" xml:space="preserve">
<style type="text/css">
	.st0{fill:#00DD00;}
</style>
<g>
	<g>
		<path class="st0" d="M63.3,46.4c0-0.3,0-0.7,0-1c-0.1-2.2-0.2-4.4-0.3-6.5c0-0.2,0-0.4,0-0.7c-0.4-4.6-0.9-8.8-1.7-12.6v0
			c0-0.2-0.1-0.4-0.1-0.7c-1.3-6.5-3-11.6-5.1-15c-0.1,0.1-0.3,0.3-0.5,0.4c2,3.3,3.8,8.5,5,15c0,0.2,0.1,0.5,0.1,0.7v0
			c0.7,3.7,1.2,7.8,1.6,12.2c0,0.2,0,0.4,0,0.7c0.2,1.9,0.3,3.8,0.3,5.8c0,0.3,0,0.7,0,1c0,1.7,0.1,3.4,0.1,5.1s0,3.4-0.1,5.1
			c0,0.3,0,0.7,0,1c-0.1,2-0.2,4-0.3,5.8c0,0.2,0,0.5,0,0.7c-0.4,4.4-0.9,8.5-1.6,12.2c0,0.2-0.1,0.4-0.1,0.7
			c-2.2,11.4-5.9,18.9-10.1,18.9s-7.9-7.5-10.1-18.9c0-0.2-0.1-0.4-0.1-0.7c-0.7-3.7-1.2-7.8-1.6-12.2c0-0.2,0-0.4,0-0.7
			c-0.2-1.9-0.3-3.8-0.3-5.8c0-0.3,0-0.7,0-1c0-1.7-0.1-3.4-0.1-5.1c0-1.7,0-3.4,0.1-5.1c0-0.3,0-0.7,0-1c0.1-2,0.2-4,0.3-5.8
			c0-0.2,0-0.4,0-0.7c0.4-4.4,0.9-8.5,1.6-12.2v0c0-0.2,0.1-0.5,0.1-0.7c2.2-11.4,5.9-18.9,10.1-18.9c0.9,0,1.8,0.4,2.7,1.1
			c0.1-0.2,0.3-0.3,0.5-0.4c-1-0.8-2.1-1.3-3.2-1.3c-4.5,0-8.4,7.5-10.7,19.1c0,0.2-0.1,0.5-0.1,0.7c-0.7,3.8-1.3,8.1-1.7,12.6
			c0,0.2,0,0.4-0.1,0.7c-0.2,2.1-0.3,4.3-0.3,6.5c0,0.3,0,0.7,0,1c0,1.4-0.1,2.9-0.1,4.4c0,1.5,0,3,0.1,4.4c0,0.3,0,0.7,0,1
			c0.1,2.2,0.2,4.4,0.3,6.5c0,0.2,0,0.4,0.1,0.7c0.4,4.6,0.9,8.8,1.7,12.6v0c0,0.2,0.1,0.4,0.1,0.7c2.3,11.6,6.2,19.1,10.7,19.1
			c4.5,0,8.4-7.5,10.7-19.1c0.1-0.2,0.1-0.4,0.1-0.7c0.7-3.8,1.3-8.1,1.7-12.6c0-0.2,0-0.4,0-0.7c0.2-2.1,0.3-4.3,0.3-6.5v0
			c0-0.3,0-0.7,0-1c0-1.4,0.1-2.9,0.1-4.4C63.4,49.3,63.3,47.8,63.3,46.4z M54,7.6c-0.2,0.1-0.3,0.2-0.5,0.4c0.5,0.5,1,1.1,1.5,1.8
			c0.2-0.1,0.3-0.2,0.5-0.4C55.1,8.7,54.6,8.1,54,7.6z"/>
		<path class="st0" d="M47.7,63.3c0-0.1,0-0.1,0-0.2c-0.8,0-1.6,0-2.4-0.1c0.2,0.2,0.5,0.5,0.7,0.7c0.6,0,1.1,0,1.7,0
			C47.7,63.7,47.7,63.5,47.7,63.3z M47.7,63.3c0-0.1,0-0.1,0-0.2c-0.8,0-1.6,0-2.4-0.1c0.2,0.2,0.5,0.5,0.7,0.7c0.6,0,1.1,0,1.7,0
			C47.7,63.7,47.7,63.5,47.7,63.3z M62.9,38.2c-0.2,0-0.4,0-0.7,0c0,0.2,0,0.4,0,0.7c0.2,0,0.5,0,0.7,0c4.4,0.4,8.4,0.9,12.1,1.6
			c0.1-0.2,0.3-0.4,0.4-0.6C71.7,39.2,67.4,38.6,62.9,38.2z M47.7,63.3c0-0.1,0-0.1,0-0.2c-0.8,0-1.6,0-2.4-0.1
			c0.2,0.2,0.5,0.5,0.7,0.7c0.6,0,1.1,0,1.7,0C47.7,63.7,47.7,63.5,47.7,63.3z M50.8,63.2h-0.4c-0.7,0-1.4,0-2,0c0,0.1,0,0.1,0,0.2
			c0,0.2,0,0.3,0.1,0.5c0.7,0,1.3,0,2,0h0.3c0.1-0.2,0.1-0.3,0.1-0.5C50.8,63.3,50.8,63.2,50.8,63.2z M76.2,40
			c-0.2,0-0.5-0.1-0.7-0.1c-3.8-0.7-8-1.3-12.6-1.7c-0.2,0-0.4,0-0.7,0c-2.1-0.2-4.3-0.3-6.5-0.4c-0.3,0-0.7,0-1,0
			c-1.4,0-2.9-0.1-4.4-0.1c-1.5,0-2.9,0-4.4,0.1h0c-0.3,0-0.7,0-1,0c-2.2,0.1-4.4,0.2-6.5,0.4c-0.2,0-0.4,0-0.7,0
			c-4.5,0.4-8.8,0.9-12.6,1.7c-0.2,0-0.5,0.1-0.7,0.1c-11.5,2.3-19,6.2-19,10.7c0,4.5,7.4,8.4,19,10.7c0.2,0,0.5,0.1,0.7,0.1
			c3.8,0.7,8,1.3,12.6,1.7c0.2,0,0.4,0,0.7,0.1c2.1,0.2,4.3,0.3,6.5,0.4c0.3,0,0.6,0,1,0c0.6,0,1.1,0,1.7,0c0-0.1-0.1-0.3-0.1-0.5
			c0-0.1,0-0.1,0-0.2c-0.8,0-1.6,0-2.4-0.1c-0.3,0-0.7,0-1,0c-2-0.1-3.9-0.2-5.8-0.3c-0.2,0-0.5,0-0.7,0c-4.4-0.4-8.4-0.9-12.1-1.6
			c-0.2,0-0.5-0.1-0.7-0.1C13.7,58.7,6.3,55,6.3,50.8c0-4.2,7.4-7.9,18.7-10.1c0.2,0,0.5-0.1,0.7-0.1c3.7-0.7,7.8-1.2,12.1-1.6
			c0.2,0,0.5,0,0.7,0c1.9-0.2,3.8-0.3,5.8-0.3c0.3,0,0.6,0,1,0c1.7,0,3.4-0.1,5.1-0.1s3.4,0,5.1,0.1c0.3,0,0.6,0,1,0
			c2,0.1,3.9,0.2,5.8,0.3c0.2,0,0.5,0,0.7,0c4.4,0.4,8.4,0.9,12.1,1.6c0.2,0,0.5,0.1,0.7,0.1c11.3,2.2,18.7,6,18.7,10.1
			c0,4.2-7.4,7.9-18.7,10.1c-0.2,0-0.5,0.1-0.7,0.1c-3.7,0.7-7.8,1.2-12.1,1.6c-0.2,0-0.4,0-0.7,0c-1.9,0.2-3.8,0.3-5.8,0.3
			c-0.3,0-0.6,0-1,0c0,0,0,0,0,0c-1.3,0-2.7,0.1-4,0.1c0,0.1,0,0.1,0,0.2c0,0.2,0,0.3-0.1,0.5c1.1,0,2.3,0,3.4-0.1c0.3,0,0.6,0,1,0
			c2.2-0.1,4.4-0.2,6.5-0.4c0.2,0,0.5,0,0.7-0.1c4.6-0.4,8.8-0.9,12.6-1.7c0.2,0,0.5-0.1,0.7-0.1c11.5-2.3,19-6.2,19-10.7
			C95.1,46.3,87.7,42.4,76.2,40z M50.4,63.2c-0.7,0-1.4,0-2,0c0,0.1,0,0.1,0,0.2c0,0.2,0,0.3,0.1,0.5c0.7,0,1.3,0,2,0h0.3
			c0.1-0.2,0.1-0.3,0.1-0.5c0-0.1,0-0.1,0-0.2H50.4z M47.7,63.3c0-0.1,0-0.1,0-0.2c-0.8,0-1.6,0-2.4-0.1c0.2,0.2,0.5,0.5,0.7,0.7
			c0.6,0,1.1,0,1.7,0C47.7,63.7,47.7,63.5,47.7,63.3z M47.7,63.3c0-0.1,0-0.1,0-0.2c-0.8,0-1.6,0-2.4-0.1c0.2,0.2,0.5,0.5,0.7,0.7
			c0.6,0,1.1,0,1.7,0C47.7,63.7,47.7,63.5,47.7,63.3z M47.7,63.3c0-0.1,0-0.1,0-0.2c-0.8,0-1.6,0-2.4-0.1c0.2,0.2,0.5,0.5,0.7,0.7
			c0.6,0,1.1,0,1.7,0C47.7,63.7,47.7,63.5,47.7,63.3z"/>
		<path class="st0" d="M70,47.4c-0.5,0.6-1,1.3-1.6,1.9c0.2,0.1,0.4,0.2,0.7,0.2c0.4-0.5,0.8-1,1.2-1.5C70.3,47.8,70.1,47.5,70,47.4
			z M82,19c-0.9-0.9-2.2-1.4-3.9-1.4c-4.1,0-10.2,2.7-17.1,7.3c-0.2,0.1-0.4,0.3-0.6,0.4c-3.2,2.2-6.6,4.8-10.1,7.7
			c-0.2,0.1-0.3,0.3-0.5,0.4c-1.6,1.4-3.2,2.8-4.8,4.3c-0.2,0.2-0.5,0.5-0.7,0.7c-1,1-2.1,2-3.1,3.1c-1,1-2,2.1-3,3.1
			c-0.2,0.2-0.5,0.5-0.7,0.7c-1.5,1.6-3,3.3-4.3,4.9c-0.2,0.2-0.3,0.3-0.4,0.5c-3,3.5-5.5,6.9-7.7,10.1c-0.1,0.2-0.3,0.4-0.4,0.6
			c-6.5,9.9-9,17.9-5.9,21.1c0.9,0.9,2.2,1.4,3.9,1.4c4,0,10.2-2.7,17.1-7.3c0.2-0.1,0.4-0.3,0.6-0.4c3.2-2.2,6.7-4.8,10.1-7.7
			c0.2-0.1,0.3-0.3,0.5-0.4c1.6-1.4,3.2-2.8,4.8-4.3c0.2-0.2,0.5-0.5,0.7-0.7c1-1,2.1-2,3.1-3.1c1-1,2.1-2.1,3-3.1
			c0.2-0.2,0.5-0.5,0.7-0.7v0c1.5-1.6,3-3.3,4.3-4.9c0.2-0.2,0.3-0.3,0.4-0.5c0.2-0.2,0.4-0.5,0.6-0.7c-0.2,0-0.4-0.2-0.6-0.3
			c-0.1,0.2-0.3,0.3-0.4,0.5c-0.1,0.2-0.3,0.3-0.4,0.5c-1.2,1.5-2.5,2.9-3.9,4.4c-0.2,0.2-0.4,0.5-0.7,0.7c-1.1,1.2-2.3,2.5-3.5,3.7
			c-1.2,1.2-2.4,2.4-3.6,3.5c0,0,0,0,0,0c-0.2,0.2-0.5,0.5-0.7,0.7c-1.5,1.4-2.9,2.6-4.4,3.9c-0.2,0.1-0.3,0.3-0.5,0.4
			c-3.3,2.8-6.6,5.3-9.7,7.5c-0.2,0.1-0.4,0.3-0.6,0.4v0c-6.9,4.6-13,7.3-16.9,7.3c-1.5,0-2.7-0.4-3.4-1.2c-2.9-3-0.3-10.8,6.1-20.5
			c0.1-0.2,0.3-0.4,0.4-0.6c2.1-3.1,4.6-6.4,7.5-9.8c0.1-0.2,0.3-0.3,0.4-0.5c1.2-1.5,2.5-2.9,3.9-4.4c0.2-0.2,0.4-0.5,0.7-0.7
			c1.1-1.2,2.3-2.5,3.5-3.7s2.4-2.4,3.7-3.5c0.2-0.2,0.5-0.5,0.7-0.7h0c1.5-1.3,2.9-2.7,4.3-3.9c0.2-0.1,0.3-0.3,0.5-0.4
			c3.3-2.8,6.6-5.4,9.7-7.5v0c0.2-0.1,0.4-0.3,0.6-0.4v0c6.9-4.6,12.9-7.3,16.9-7.3c1.5,0,2.7,0.4,3.4,1.2c2.9,3,0.3,10.9-6.1,20.5
			c-0.1,0.2-0.3,0.4-0.4,0.6c-1.4,2.1-3,4.2-4.7,6.4c0.2,0.1,0.3,0.3,0.4,0.5c1.8-2.3,3.5-4.6,5-6.8c0.1-0.2,0.3-0.4,0.4-0.6
			C82.7,30.2,85.2,22.1,82,19z"/>
		<path class="st0" d="M76.2,61.5c-0.1-0.2-0.3-0.4-0.4-0.6c-2.2-3.2-4.8-6.6-7.7-10.1c-0.1-0.2-0.3-0.3-0.4-0.5
			c-1.4-1.6-2.8-3.2-4.3-4.9c-0.2-0.2-0.4-0.5-0.7-0.7c-1-1-2-2.1-3-3.1c-1-1-2.1-2.1-3.1-3.1c-0.2-0.2-0.5-0.5-0.7-0.7
			c-1.6-1.5-3.2-3-4.8-4.3c-0.2-0.1-0.3-0.3-0.5-0.4c-3.5-2.9-6.9-5.5-10.1-7.7c-0.2-0.1-0.4-0.3-0.6-0.4c-6.9-4.6-13-7.3-17.1-7.3
			c-0.9,0-1.6,0.1-2.3,0.4c0.2,0.2,0.3,0.4,0.4,0.6c0.6-0.2,1.2-0.3,1.9-0.3c4,0,10.1,2.7,16.9,7.3c0.2,0.1,0.4,0.3,0.6,0.4v0
			c3.1,2.1,6.4,4.6,9.7,7.5c0.2,0.1,0.3,0.3,0.5,0.4c1.5,1.2,2.9,2.5,4.4,3.9c0.2,0.2,0.5,0.5,0.7,0.7c1.2,1.2,2.4,2.3,3.7,3.6
			c1.2,1.2,2.4,2.5,3.5,3.7c0.2,0.2,0.5,0.5,0.7,0.7c1.4,1.5,2.7,2.9,3.9,4.4c0.2,0.2,0.3,0.3,0.4,0.5c2.8,3.4,5.3,6.6,7.4,9.8
			c0.1,0.2,0.3,0.4,0.4,0.6c6.4,9.6,9.1,17.5,6.1,20.5c-0.8,0.8-1.9,1.2-3.4,1.2c-4,0-10.1-2.7-16.9-7.3c-0.2-0.1-0.4-0.3-0.6-0.4
			c-3.1-2.1-6.4-4.6-9.7-7.5c-0.2-0.1-0.3-0.3-0.5-0.4c-1.5-1.2-2.9-2.5-4.4-3.9c-0.2-0.2-0.5-0.4-0.7-0.7c-1.2-1.1-2.4-2.3-3.7-3.5
			s-2.4-2.4-3.5-3.7c-0.2-0.2-0.4-0.5-0.7-0.7c-1.3-1.5-2.7-2.9-3.9-4.4c-0.2-0.2-0.3-0.3-0.4-0.5c-2.8-3.4-5.3-6.7-7.4-9.8
			c-0.1-0.2-0.3-0.4-0.4-0.6c-5.5-8.3-8.2-15.3-7-19c-0.2-0.1-0.4-0.2-0.5-0.3c-1.4,3.9,1.3,11,6.9,19.4c0.1,0.2,0.3,0.4,0.4,0.6
			c2.2,3.2,4.8,6.6,7.7,10.1c0.1,0.2,0.3,0.3,0.4,0.5c1.4,1.6,2.8,3.2,4.3,4.9c0.2,0.2,0.4,0.5,0.7,0.7c1,1,2,2.1,3,3.1
			c1,1,2.1,2.1,3.1,3.1c0.2,0.2,0.5,0.5,0.7,0.7c1.6,1.5,3.2,3,4.8,4.3c0.2,0.1,0.3,0.3,0.5,0.4c3.5,2.9,6.9,5.5,10.1,7.7
			c0.2,0.1,0.4,0.3,0.6,0.4c6.9,4.6,13,7.3,17.1,7.3c1.7,0,3-0.4,3.9-1.4C85.2,79.4,82.7,71.4,76.2,61.5z M19.7,18.2
			c-0.4,0.2-0.7,0.4-1,0.7c-0.3,0.3-0.5,0.6-0.7,1c0.1,0.2,0.3,0.3,0.5,0.4c0.2-0.4,0.4-0.6,0.7-0.9c0.3-0.3,0.6-0.5,0.9-0.6
			C20,18.6,19.9,18.4,19.7,18.2z"/>
	</g>
	<g>
		<g>
			<path class="st0" d="M20.2,19.2c0,0.7-0.5,1.2-1.2,1.2c-0.1,0-0.3,0-0.4-0.1c-0.2-0.1-0.4-0.2-0.5-0.4c-0.2-0.2-0.3-0.5-0.3-0.8
				c0-0.7,0.5-1.2,1.2-1.2c0.3,0,0.6,0.1,0.8,0.3c0.2,0.1,0.3,0.3,0.4,0.5C20.2,18.9,20.2,19,20.2,19.2z"/>
		</g>
		<g>
			<path class="st0" d="M55.8,8.6c0,0.3-0.1,0.5-0.2,0.7c-0.1,0.2-0.3,0.3-0.5,0.4c-0.2,0.1-0.3,0.1-0.5,0.1c-0.7,0-1.2-0.6-1.2-1.2
				c0-0.3,0.1-0.5,0.2-0.7c0.1-0.2,0.3-0.3,0.5-0.4c0.2-0.1,0.3-0.1,0.5-0.1C55.2,7.4,55.8,8,55.8,8.6z"/>
		</g>
		<g>
			<path class="st0" d="M70.4,48.3c0,0.7-0.6,1.2-1.2,1.2c0,0,0,0-0.1,0c-0.2,0-0.5-0.1-0.7-0.2c-0.3-0.2-0.5-0.6-0.5-1
				c0-0.7,0.6-1.2,1.2-1.2c0.3,0,0.6,0.1,0.8,0.3c0.2,0.2,0.3,0.4,0.4,0.6C70.4,48.1,70.4,48.2,70.4,48.3z"/>
		</g>
		<g>
			<path class="st0" d="M50.8,63.3c0,0.2,0,0.3-0.1,0.5c-0.2,0.4-0.6,0.8-1.1,0.8c-0.5,0-1-0.3-1.1-0.8c-0.1-0.1-0.1-0.3-0.1-0.5
				c0-0.1,0-0.1,0-0.2c0.1-0.6,0.6-1,1.2-1s1.1,0.5,1.2,1.1C50.8,63.2,50.8,63.3,50.8,63.3z"/>
		</g>
	</g>
</g>
</svg>
