<?xml version="1.0" encoding="utf-8"?>
<!-- Generator: Adobe Illustrator 19.2.0, SVG Export Plug-In . SVG Version: 6.00 Build 0)  -->
<svg version="1.1" id="Calque_1" xmlns="http://www.w3.org/2000/svg" xmlns:xlink="http://www.w3.org/1999/xlink" x="0px" y="0px"
	 viewBox="0 0 50 50" style="enable-background:new 0 0 50 50;" xml:space="preserve">
<style type="text/css">
	.st0{fill:#FFFFFF;}
</style>
<g transform="translate(0,-952.36218)">
	<path class="st0" d="M18.5,955.1c-0.1,0-0.2,0-0.3,0.1l-16.5,7.6c-0.5,0.2-0.7,1-0.3,1.5l5.1,6l-5.1,6c-0.3,0.4-0.2,1.2,0.3,1.5
		l5.1,2.3v11c0,0.4,0.2,0.7,0.6,0.9l17,7.6c0.2,0.1,0.5,0.1,0.8,0l17-7.6c0.3-0.1,0.6-0.5,0.6-0.9v-11l5.1-2.3
		c0.5-0.2,0.7-1,0.3-1.5l-5.1-6l5.1-6c0.4-0.4,0.2-1.2-0.3-1.5l-16.5-7.6c-0.1-0.1-0.3-0.1-0.5-0.1s-0.5,0.1-0.6,0.3l-5.4,5.9
		l-5.4-5.9C19.1,955.2,18.8,955.1,18.5,955.1L18.5,955.1z M18.4,957.2l4.8,5.1L8,969.1L3.6,964L18.4,957.2z M31.1,957.2l14.8,6.8
		l-4.4,5.1l-15.2-6.7L31.1,957.2z M24.8,963.7l14.7,6.5l-14.7,6.5l-14.7-6.5L24.8,963.7z M8,971.4l15.2,6.7l-4.8,5.1l-14.8-6.8
		L8,971.4z M41.5,971.4l4.4,5.1l-14.8,6.8l-4.8-5.1L41.5,971.4z M23.8,980.2v16.9l-15.1-6.7v-9.5l9.5,4.4c0.4,0.2,0.8,0.1,1.1-0.2
		L23.8,980.2z M25.7,980.2l4.5,4.8c0.3,0.3,0.7,0.4,1.1,0.2l9.5-4.4v9.5L25.7,997C25.7,997,25.7,980.2,25.7,980.2z"/>
</g>
</svg>
