<?xml version="1.0" encoding="utf-8"?>
<!-- Generator: Adobe Illustrator 19.2.0, SVG Export Plug-In . SVG Version: 6.00 Build 0)  -->
<svg version="1.1" id="Calque_1" xmlns="http://www.w3.org/2000/svg" xmlns:xlink="http://www.w3.org/1999/xlink" x="0px" y="0px"
	 viewBox="0 0 50 50" style="enable-background:new 0 0 50 50;" xml:space="preserve">
<style type="text/css">
	.st0{fill:#FFFFFF;}
</style>
<g>
	<g>
		<path class="st0" d="M42.6,21.9H12.5c-0.7,0-1.6,0.6-1.6,1.3v4.6h-3c-3.6,0-6.6,3-6.6,6.6s3,6.6,6.6,6.6h4.8
			c2.2,4.3,6.7,7.2,11.9,7.2h6c7.4,0,13.1-6,13.1-13.4V23.2C43.6,22.5,43.3,21.9,42.6,21.9z M7.9,38.3c-2.2,0-3.9-1.8-3.9-3.9
			s1.8-3.9,3.9-3.9h3v4.3c0,1.2,0.5,2.4,0.8,3.5H7.9z M40.9,34.7c0,5.9-4.5,10.8-10.4,10.8h-6c-5.9,0-11.1-4.9-11.1-10.8V24.5H41
			L40.9,34.7L40.9,34.7z"/>
		<path class="st0" d="M28.2,18.6c0,0.7,0.6,1.3,1.3,1.3s1.3-0.6,1.3-1.3c0-2.4-0.8-3.7-1.5-4.8c-0.6-1-1.1-1.7-1.1-3.4
			S28.7,8,29.3,7c0.7-1.1,1.5-2.4,1.5-4.8c0-0.7-0.6-1.3-1.3-1.3s-1.3,0.6-1.3,1.3c0,1.6-0.5,2.4-1.1,3.4c-0.7,1.1-1.5,2.4-1.5,4.8
			s0.8,3.7,1.5,4.8C27.7,16.2,28.2,17,28.2,18.6z"/>
		<path class="st0" d="M36.3,18.6c0,0.7,0.6,1.3,1.3,1.3s1.3-0.6,1.3-1.3c0-2.4-0.8-3.7-1.5-4.8c-0.7-1-1.1-1.8-1.1-3.4
			S36.8,8,37.5,7C38.2,5.9,39,4.6,39,2.2c0-0.7-0.6-1.3-1.3-1.3s-1.3,0.6-1.3,1.3c0,1.6-0.5,2.4-1.1,3.4c-0.7,1.1-1.5,2.4-1.5,4.8
			s0.8,3.7,1.5,4.8C36,16.2,36.3,17,36.3,18.6z"/>
		<path class="st0" d="M19.9,18.6c0,0.7,0.6,1.3,1.3,1.3c0.7,0,1.3-0.6,1.3-1.3c0-2.4-0.8-3.7-1.5-4.8c-0.7-1-1.1-1.8-1.1-3.4
			S20.4,8,21.1,7c0.7-1.1,1.5-2.4,1.5-4.8c0-0.7-0.6-1.3-1.3-1.3c-0.7,0-1.3,0.6-1.3,1.3c0,1.6-0.5,2.4-1.1,3.4
			c-0.7,1.1-1.5,2.4-1.5,4.8s0.8,3.7,1.5,4.8C19.5,16.2,19.9,17,19.9,18.6z"/>
	</g>
</g>
</svg>
