<?xml version="1.0" encoding="utf-8"?>
<!-- Generator: Adobe Illustrator 19.2.0, SVG Export Plug-In . SVG Version: 6.00 Build 0)  -->
<svg version="1.1" id="Calque_1" xmlns="http://www.w3.org/2000/svg" xmlns:xlink="http://www.w3.org/1999/xlink" x="0px" y="0px"
	 viewBox="0 0 50 50" style="enable-background:new 0 0 50 50;" xml:space="preserve">
<style type="text/css">
	.st0{fill:#FFFFFF;}
</style>
<g>
	<g>
		<path class="st0" d="M24.7,2.9c6.9,0,12.5,5.6,12.5,12.5c0,2.4-0.7,4.8-2,6.8l-0.1,0.1v0.1L29.9,33H20l-5.8-10.7v-0.1v-0.1
			c-1.3-2-2-4.4-2-6.8C12.2,8.5,17.8,2.9,24.7,2.9L24.7,2.9z M24.7,1.1c-7.9,0-14.3,6.4-14.3,14.3c0,2.8,0.8,5.5,2.3,7.7l0,0
			L19,34.7h12l5.8-11.6l0,0c1.4-2.2,2.3-4.9,2.3-7.7C39,7.5,32.6,1.1,24.7,1.1L24.7,1.1L24.7,1.1z"/>
		<rect x="19" y="35.7" class="st0" width="12" height="2.2"/>
		<rect x="19" y="38.9" class="st0" width="12" height="2.2"/>
		<rect x="19" y="42.1" class="st0" width="12" height="2.2"/>
		<rect x="21.5" y="45.4" class="st0" width="7" height="2.2"/>
	</g>
</g>
</svg>
