<?xml version="1.0" encoding="utf-8"?>
<!-- Generator: Adobe Illustrator 19.2.0, SVG Export Plug-In . SVG Version: 6.00 Build 0)  -->
<svg version="1.1" id="Calque_1" xmlns="http://www.w3.org/2000/svg" xmlns:xlink="http://www.w3.org/1999/xlink" x="0px" y="0px"
	 viewBox="0 0 50 50" style="enable-background:new 0 0 50 50;" xml:space="preserve">
<style type="text/css">
	.st0{fill:#FFFFFF;}
</style>
<g>
	<path class="st0" d="M40.6,22.7c0-0.3-0.1-0.5-0.3-0.7s-0.4-0.3-0.7-0.3s-6.2,0.4-10.1,4.4c-1,1-1.8,2.2-2.4,3.4V3.9L31.2,8
		c0.2,0.2,0.4,0.3,0.7,0.3c0.2,0,0.5-0.1,0.7-0.3c0.4-0.4,0.4-1,0-1.4l-5.8-5.8c-0.4-0.4-1-0.4-1.4,0l-5.8,5.8c-0.4,0.4-0.4,1,0,1.4
		c0.4,0.4,1,0.4,1.4,0l4.1-4.1v15.9c-0.6-1.2-1.4-2.4-2.4-3.4c-4-4-9.9-4.3-10.1-4.4c-0.3,0-0.5,0.1-0.7,0.3s-0.3,0.5-0.3,0.7
		c0,0.3,0.4,6.2,4.4,10.1c3.1,3.1,7.4,4,9.2,4.3V37c-0.6-1.2-1.4-2.4-2.4-3.4c-4-4-9.9-4.3-10.1-4.4c-0.3,0-0.5,0.1-0.7,0.3
		c-0.2,0.2-0.3,0.5-0.3,0.7c0,0.3,0.4,6.2,4.4,10.1c3.1,3.1,7.4,4,9.2,4.3v3c0,0.5,0.4,1,1,1c0.5,0,1-0.4,1-1V37.2
		c1.8-0.3,6.1-1.2,9.2-4.3C40.2,28.9,40.6,23,40.6,22.7z M17.2,21.8c-2.5-2.5-3.3-5.9-3.6-7.7c1.8,0.3,5.3,1.2,7.7,3.6
		c2.5,2.5,3.3,5.9,3.7,7.7C23.2,25.1,19.7,24.3,17.2,21.8z M17.2,39.1c-2.5-2.5-3.3-5.9-3.7-7.7c1.8,0.3,5.3,1.2,7.7,3.7
		c2.5,2.5,3.3,5.9,3.7,7.7C23.2,42.4,19.7,41.6,17.2,39.1z M27.2,35.2c0.3-1.8,1.2-5.3,3.7-7.7c2.5-2.5,5.9-3.3,7.7-3.6
		c-0.3,1.8-1.2,5.3-3.7,7.7C32.4,34,29,34.9,27.2,35.2z"/>
</g>
</svg>
