<?xml version="1.0" encoding="utf-8"?>
<!-- Generator: Adobe Illustrator 19.2.0, SVG Export Plug-In . SVG Version: 6.00 Build 0)  -->
<svg version="1.1" id="Calque_1" xmlns="http://www.w3.org/2000/svg" xmlns:xlink="http://www.w3.org/1999/xlink" x="0px" y="0px"
	 viewBox="0 0 50 50" style="enable-background:new 0 0 50 50;" xml:space="preserve">
<style type="text/css">
	.st0{fill:#FFFFFF;}
</style>
<path class="st0" d="M19.9,4.5l-4.6-0.9l0.5,1.5C7.7,8.6,2,16.6,2,25.9c0,3,0.6,5.9,1.7,8.6C3,35.1,2.5,36,2.5,37
	c0,1.9,1.6,3.5,3.5,3.5S9.5,39,9.5,37S8,33.5,6,33.5c-0.3,0-0.6,0-0.9,0.1c-1-2.4-1.5-5.1-1.5-7.8c0-8.6,5.2-16,12.6-19.3L16.7,8
	L19.9,4.5z M8,37c0,1.1-0.9,2-2,2s-1.9-0.9-1.9-2S5,35.1,6,35.1S8,36,8,37z M47,29.1c0.2-1.1,0.2-2.2,0.2-3.3
	c0-11.3-8.3-20.6-19.1-22.3c-0.3-1.7-1.7-3-3.5-3c-1.9,0-3.5,1.6-3.5,3.5s1.6,3.5,3.5,3.5c1.6,0,2.9-1,3.3-2.4
	c10,1.6,17.7,10.3,17.7,20.7c0,1-0.1,2-0.2,2.9l-1.5-0.3l1.4,4.5l3.2-3.5L47,29.1z M24.6,6c-1.1,0-1.9-0.9-1.9-1.9s0.9-1.9,1.9-1.9
	s1.9,0.9,1.9,1.9S25.7,6,24.6,6z M43.2,33.5c-1.9,0-3.5,1.6-3.5,3.5c0,0.9,0.4,1.7,0.9,2.4c-3.9,4.6-9.6,7.4-16,7.4
	c-4.7,0-9-1.5-12.4-4.1l1-1.2l-4.6-0.9l1.5,4.5l1-1.2c3.8,2.8,8.4,4.5,13.5,4.5c7,0,13.2-3.2,17.3-8.1c0.4,0.2,0.8,0.2,1.3,0.2
	c1.9,0,3.5-1.6,3.5-3.5C46.7,35.1,45.2,33.5,43.2,33.5z M43.2,39c-1.1,0-1.9-0.9-1.9-1.9s0.9-1.9,1.9-1.9s1.9,0.9,1.9,1.9
	S44.3,39,43.2,39z"/>
</svg>
