<?xml version="1.0" encoding="utf-8"?>
<!-- Generator: Adobe Illustrator 19.2.0, SVG Export Plug-In . SVG Version: 6.00 Build 0)  -->
<svg version="1.1" id="Calque_1" xmlns="http://www.w3.org/2000/svg" xmlns:xlink="http://www.w3.org/1999/xlink" x="0px" y="0px"
	 viewBox="0 0 50 50" style="enable-background:new 0 0 50 50;" xml:space="preserve">
<style type="text/css">
	.st0{fill:#FFFFFF;}
</style>
<g>
	<path class="st0" d="M18.8,17.7c0.3,1.1,1,1.2,1,1.2c0.4,2.6,2.5,4.7,3.2,5.2s1.8,0.4,1.8,0.4c0.9,0,1.3,0,2.6-1.1
		c1.4-1.1,2.4-4.4,2.4-4.4c1,0.1,1.5-1.7,1.5-2.5c0-0.8-0.5-0.9-0.5-0.9s0.3-1.4,0-3.1c-0.3-1.8-1.7-3.6-4.8-4.2
		c-3.1-0.5-4.7,1.1-4.7,1.1s-1,0-2,1.5s-0.2,4.8-0.2,4.8C18.5,15.9,18.5,16.6,18.8,17.7z"/>
	<path class="st0" d="M33.3,18.9c0.2,0.8,0.8,0.9,0.8,0.9c0.3,2,1.9,3.5,2.4,3.9C37,24,37.8,24,37.8,24c0.6,0,0.9,0,2-0.9
		c1-0.9,1.8-3.3,1.8-3.3c0.8,0.1,1.1-1.3,1.1-1.9s-0.4-0.7-0.4-0.7s0.2-1,0-2.3s-1.3-2.7-3.6-3.1s-3.5,0.8-3.5,0.8s-0.8,0-1.5,1.1
		s-0.1,3.6-0.1,3.6C33,17.6,33.1,18.1,33.3,18.9z"/>
	<path class="st0" d="M45.1,25.3c-0.5-0.6-2.1-0.5-2.7-0.7c-0.6-0.1-1.7-1.2-1.7-1.2c-0.4,1.4-2.8,1.9-2.8,1.9s-2.5-0.5-2.8-1.9
		c0,0-1,1.1-1.7,1.2c-0.6,0.1-2.2,0.1-2.7,0.6c-0.8-0.4-2-1.5-2-1.5c-0.5,1.9-3.8,2.6-3.8,2.6s-3.3-0.7-3.8-2.6c0,0-1.1,1.2-2,1.5
		c-0.5-0.5-2.1-0.5-2.7-0.6s-1.7-1.2-1.7-1.2c-0.4,1.4-2.8,1.9-2.8,1.9s-2.5-0.5-2.8-1.9c0,0-1,1.1-1.7,1.2s-2.2,0.1-2.7,0.7
		S3,29,2.5,32.4c0,1.3,5.1,1.9,10,1.9c-0.1,0.5-0.2,1-0.3,1.5c0,3.3,25.4,3.3,25.4,0c-0.1-0.5-0.2-1-0.3-1.5c4.9,0,10-0.6,10-1.9
		C46.8,28.9,45.6,25.8,45.1,25.3z"/>
	<path class="st0" d="M7.5,18.9c0.2,0.8,0.8,0.9,0.8,0.9c0.3,2,1.9,3.5,2.4,3.9C11.2,24,12,24,12,24c0.6,0,0.9,0,2-0.9
		s1.8-3.3,1.8-3.3c0.8,0.1,1.1-1.3,1.1-1.9s-0.4-0.7-0.4-0.7s0.2-1,0-2.3s-1.3-2.7-3.6-3.1s-3.5,0.8-3.5,0.8s-0.8,0-1.5,1.1
		s-0.1,3.6-0.1,3.6C7.2,17.6,7.3,18.1,7.5,18.9z"/>
</g>
</svg>
